<?xml version="1.0" encoding="UTF-8" standalone="no"?>
<!-- Created with Inkscape (http://www.inkscape.org/) -->

<svg
   version="1.1"
   id="svg1"
   width="1125.208"
   height="390.04956"
   viewBox="0 0 1125.208 390.04956"
   sodipodi:docname="cessna.svg"
   inkscape:version="1.4 (e7c3feb1, 2024-10-09)"
   xmlns:inkscape="http://www.inkscape.org/namespaces/inkscape"
   xmlns:sodipodi="http://sodipodi.sourceforge.net/DTD/sodipodi-0.dtd"
   xmlns="http://www.w3.org/2000/svg"
   xmlns:svg="http://www.w3.org/2000/svg">
  <defs
     id="defs1" />
  <sodipodi:namedview
     id="namedview1"
     pagecolor="#ffffff"
     bordercolor="#000000"
     borderopacity="0.25"
     inkscape:showpageshadow="2"
     inkscape:pageopacity="0.0"
     inkscape:pagecheckerboard="true"
     inkscape:deskcolor="#d1d1d1"
     showgrid="false"
     inkscape:zoom="1.0746186"
     inkscape:cx="484.3579"
     inkscape:cy="275.44657"
     inkscape:window-width="2560"
     inkscape:window-height="1387"
     inkscape:window-x="1086"
     inkscape:window-y="25"
     inkscape:window-maximized="0"
     inkscape:current-layer="g1">
    <inkscape:page
       x="0"
       y="0"
       inkscape:label="1"
       id="page1"
       width="1125.208"
       height="390.04956"
       margin="0"
       bleed="0" />
  </sodipodi:namedview>
  <g
     id="g1"
     inkscape:groupmode="layer"
     inkscape:label="1">
    <path
       id="path2"
       d="m 116.457,196.312 c -12.668,-2.917 -24.716,-9.438 -31.931,-16.154 -7.054,-6.563 -9.641,-19.136 -12.046,-34.197 0,0 -22.624,-6.573 -21.144,-14.195 1.301,-6.702 24.521,-3.423 24.521,-3.423 0.487,-4.837 5.597,-4.949 10.257,-4.272 8.131,1.177 25.005,3.388 32.266,4.938 10.646,1.841 21.719,3.794 27.342,2.746 9.348,-11.401 25.122,-17.651 33.507,-18.147 6.447,-7.229 11.043,-9.959 17.507,-10.642 17.017,0.363 67.762,10.286 84.452,18.969 9.512,4.945 17.076,6.446 20.604,15.729 12.315,8.793 14.401,10.829 26.142,23.638 2.637,0.463 124.553,8.912 126.664,9.288 2.106,0.372 33.131,0.948 37.876,-0.526 4.687,-1.457 15.354,-9.548 24.426,-16.759 2.969,-2.358 49.86,-41.495 49.86,-41.495 l 40.519,8.366 -43.664,82.681 c 1.916,7.316 0.881,11.231 -2.065,16.354 -3.383,3.254 -12.25,2.146 -18.089,2.381 -99.53,3.066 -262.959,1.398 -319.338,-5.2 -32.006,-3.863 -67.615,-10.779 -107.666,-20.08"
       style="fill:#ffffff;fill-opacity:1;fill-rule:evenodd;stroke:#ffffff;stroke-width:2.24863;stroke-linecap:butt;stroke-linejoin:miter;stroke-miterlimit:4;stroke-dasharray:none;stroke-opacity:1"
       transform="matrix(1.3333333,0.04656107,-0.04656107,1.3333333,0,0)"
       sodipodi:nodetypes="ccccccccccccccccccccccc" />
    <path
       id="path3"
       d="m 211.412,220.754 41.378,7.704 c 2.963,0.384 6.817,6.929 5.036,13.331 -1.825,6.584 -6.937,4.489 -11.136,7.389 -19.977,-0.892 -32.432,-1.277 -47.806,-5.166 -7.117,-5.927 -11.06,-9.458 -10.58,-12.713 1.932,-6.985 17.632,-12.869 23.108,-10.545 z"
       style="fill:#ffffff;fill-opacity:1;fill-rule:evenodd;stroke:#ffffff;stroke-width:2.24863;stroke-linecap:round;stroke-linejoin:round;stroke-miterlimit:4;stroke-dasharray:none;stroke-opacity:1"
       transform="matrix(1.3333333,0.04656107,-0.04656107,1.3333333,0,0)" />
    <path
       id="path4"
       d="m 105.308,206.912 34.694,6.461 c 2.484,0.323 5.718,5.804 4.23,11.165 -1.534,5.51 -5.818,3.757 -9.339,6.181 -16.753,-0.751 -27.194,-1.078 -40.085,-4.334 -5.97,-4.964 -9.281,-7.922 -8.88,-10.647 1.62,-5.85 14.788,-10.775 19.38,-8.826 z"
       style="fill:#ffffff;fill-opacity:1;fill-rule:evenodd;stroke:#ffffff;stroke-width:2.24863;stroke-linecap:round;stroke-linejoin:round;stroke-miterlimit:4;stroke-dasharray:none;stroke-opacity:1"
       transform="matrix(1.3333333,0.04656107,-0.04656107,1.3333333,0,0)" />
    <path
       id="path5"
       d="m 98.815,227.479 c 0.163,9.377 11.458,15.588 21.386,3.003"
       style="fill:#ffffff;fill-opacity:1;fill-rule:evenodd;stroke:#ffffff;stroke-width:2.24863;stroke-linecap:butt;stroke-linejoin:miter;stroke-miterlimit:4;stroke-dasharray:none;stroke-opacity:1"
       transform="matrix(1.3333333,0.04656107,-0.04656107,1.3333333,0,0)" />
    <path
       id="path6"
       d="m 202.828,244.761 c 0.155,11.037 17.582,17.542 24.827,3.086"
       style="fill:#ffffff;fill-opacity:1;fill-rule:evenodd;stroke:#ffffff;stroke-width:2.24863;stroke-linecap:butt;stroke-linejoin:miter;stroke-miterlimit:4;stroke-dasharray:none;stroke-opacity:1"
       transform="matrix(1.3333333,0.04656107,-0.04656107,1.3333333,0,0)" />
    <path
       id="path7"
       d="m 175.055,119.895 c -14.41,-0.606 -34.246,15.293 -33.5,16.566 5.004,8.484 16.281,19.148 35.906,21.316 l 11,-28.062 c -9.625,-3.09 -13.406,-9.82 -13.406,-9.82 z"
       style="fill:#000000;fill-opacity:1;fill-rule:evenodd;stroke:none"
       transform="scale(1.3333333)" />
    <path
       id="path8"
       d="m 249.137,174.145 c 4.078,0.863 25.523,5.859 29.047,6.367 3.543,0.508 17.789,-1.617 18.953,-3.524 1.066,-1.754 -4.532,-18.777 -4.532,-18.777 -0.488,-2.293 -2.132,-3.574 -4.519,-4.203 l -33.953,-6.106 c -2.617,-0.425 -4.164,-0.429 -4.637,2.696 l -3.344,18.457 c -0.437,3.277 0.219,4.3 2.985,5.09 z"
       style="fill:#000000;fill-opacity:1;fill-rule:evenodd;stroke:none"
       transform="scale(1.3333333)" />
    <path
       id="path9"
       d="m 296.984,148.203 c 0,0 -2.211,2.738 -1.91,5.692 0.281,2.769 6.539,18.429 6.539,18.429 1.012,2.313 2.676,4.117 5.141,4.965 l 14.805,-5.402 c 0,0 -10.559,-14.5 -24.575,-23.684 z"
       style="fill:#000000;fill-opacity:1;fill-rule:evenodd;stroke:none"
       transform="scale(1.3333333)" />
    <path
       id="path10"
       d="m 196.547,136.438 -8.563,25.656 c 0.02,-0.055 43.961,9.363 46.321,9.863 2.965,0.633 4.281,-3.734 4.593,-5.219 l 3.465,-16.304 c 1.157,-4.102 -1.59,-4.168 -3.578,-5.02 z"
       style="fill:#000000;fill-opacity:1;fill-rule:evenodd;stroke:none"
       transform="scale(1.3333333)" />
    <path
       id="path11"
       d="m 116.457,196.312 -5.079,11.732 11.277,2.099 7.609,-5.032 -3.607,-6.194 z"
       style="fill:#ffffff;fill-opacity:1;fill-rule:evenodd;stroke:#ffffff;stroke-width:2.24863;stroke-linecap:butt;stroke-linejoin:miter;stroke-miterlimit:4;stroke-dasharray:none;stroke-opacity:1"
       transform="matrix(1.3333333,0.04656107,-0.04656107,1.3333333,0,0)" />
    <path
       id="path12"
       d="m 230.548,210.098 c -3.356,-0.559 -6.732,-0.59 -7.957,-0.004 -2.452,1.172 1.156,4.69 1.741,6.459 l -3.692,5.691 11.461,2.362 4.469,-6.945 c -0.999,-1.969 4.053,-1.38 1.799,-4.399 -1.131,-1.519 -4.466,-2.606 -7.821,-3.164 z"
       style="fill:#ffffff;fill-opacity:1;fill-rule:evenodd;stroke:#ffffff;stroke-width:2.24863;stroke-linecap:butt;stroke-linejoin:miter;stroke-miterlimit:4;stroke-dasharray:none;stroke-opacity:1"
       transform="matrix(1.3333333,0.04656107,-0.04656107,1.3333333,0,0)" />
    <path
       id="path13"
       d="m 745.727,0 -46.082,11.059 v -1.45 h -7.704 V 292.48 l 7.704,0.059 V 18.949 l 9.828,40.395 112.254,50.476 c 0.898,0.399 1.406,1.164 2.824,1.078 11.945,-6.445 18.695,-17.089 19.355,-30.277 C 834.605,72.199 745.727,0 745.727,0 Z m -8.856,7.066 c -11.258,7.848 -21.215,19.489 -25.754,38.93 l -7.5,-30.961 z m 28.973,15.907 19.125,15.222 c -15.52,7.977 -23.004,22.895 -24.461,39.77 l -21.567,-9.824 c 0.743,-14.465 5.172,-30.852 26.903,-45.168 z M 806.09,55 823.301,68.699 c -9.903,7.891 -14.703,18.422 -18.582,29.414 L 785.082,89.172 C 787.527,76.367 792.746,64.422 806.09,55 Z m 33.648,26.801 0.735,0.582 0.172,-0.09 c -1.594,10.645 -7.954,18.184 -15.434,25.148 l -0.594,-0.281 c 2.313,-9.539 7.528,-17.918 15.121,-25.359 z"
       style="fill:#ffffff;fill-opacity:1;fill-rule:evenodd;stroke:none"
       transform="scale(1.3333333)" />
  </g>
</svg>
