<?xml version="1.0" encoding="utf-8" standalone="no"?>
<!DOCTYPE svg PUBLIC "-//W3C//DTD SVG 1.1//EN"
  "http://www.w3.org/Graphics/SVG/1.1/DTD/svg11.dtd">
<svg xmlns:xlink="http://www.w3.org/1999/xlink" width="473.531855pt" height="251.142092pt" viewBox="0 0 473.531855 251.142092" xmlns="http://www.w3.org/2000/svg" version="1.1">
 <metadata>
  <rdf:RDF xmlns:dc="http://purl.org/dc/elements/1.1/" xmlns:cc="http://creativecommons.org/ns#" xmlns:rdf="http://www.w3.org/1999/02/22-rdf-syntax-ns#">
   <cc:Work>
    <dc:type rdf:resource="http://purl.org/dc/dcmitype/StillImage"/>
    <dc:date>2026-03-15T08:09:23.362590</dc:date>
    <dc:format>image/svg+xml</dc:format>
    <dc:creator>
     <cc:Agent>
      <dc:title>Matplotlib v3.10.8, https://matplotlib.org/</dc:title>
     </cc:Agent>
    </dc:creator>
   </cc:Work>
  </rdf:RDF>
 </metadata>
 <defs>
  <style type="text/css">*{stroke-linejoin: round; stroke-linecap: butt}</style>
 </defs>
 <g id="figure_1">
  <g id="patch_1">
   <path d="M -0 251.142092 
L 473.531855 251.142092 
L 473.531855 -0 
L -0 -0 
z
" style="fill: #ffffff"/>
  </g>
  <g id="axes_1">
   <g id="patch_2">
    <path d="M 26.961777 225.467717 
L 466.331855 225.467717 
L 466.331855 7.2 
L 26.961777 7.2 
z
" style="fill: #ffffff"/>
   </g>
   <g id="patch_3">
    <path d="M 26.961777 225.467717 
L 466.331855 225.467717 
L 466.331855 152.711811 
L 26.961777 152.711811 
z
" clip-path="url(#p6390bc01d8)" style="fill: #ffe4b5; opacity: 0.6"/>
   </g>
   <g id="patch_4">
    <path d="M 26.961777 152.711811 
L 466.331855 152.711811 
L 466.331855 7.2 
L 26.961777 7.2 
z
" clip-path="url(#p6390bc01d8)" style="fill: #ffe4e1; opacity: 0.6"/>
   </g>
   <g id="matplotlib.axis_1">
    <g id="xtick_1">
     <g id="line2d_1">
      <path d="M 47.884161 225.467717 
L 47.884161 7.2 
" clip-path="url(#p6390bc01d8)" style="fill: none; stroke: #b0b0b0; stroke-width: 0.5; stroke-linecap: square"/>
     </g>
     <g id="line2d_2">
      <defs>
       <path id="mf602ee35e8" d="M 0 0 
L 0 3.5 
" style="stroke: #000000; stroke-width: 0.8"/>
      </defs>
      <g>
       <use xlink:href="#mf602ee35e8" x="47.884161" y="225.467717" style="stroke: #000000; stroke-width: 0.8"/>
      </g>
     </g>
    </g>
    <g id="xtick_2">
     <g id="line2d_3">
      <path d="M 131.5737 225.467717 
L 131.5737 7.2 
" clip-path="url(#p6390bc01d8)" style="fill: none; stroke: #b0b0b0; stroke-width: 0.5; stroke-linecap: square"/>
     </g>
     <g id="line2d_4">
      <g>
       <use xlink:href="#mf602ee35e8" x="131.5737" y="225.467717" style="stroke: #000000; stroke-width: 0.8"/>
      </g>
     </g>
    </g>
    <g id="xtick_3">
     <g id="line2d_5">
      <path d="M 215.263239 225.467717 
L 215.263239 7.2 
" clip-path="url(#p6390bc01d8)" style="fill: none; stroke: #b0b0b0; stroke-width: 0.5; stroke-linecap: square"/>
     </g>
     <g id="line2d_6">
      <g>
       <use xlink:href="#mf602ee35e8" x="215.263239" y="225.467717" style="stroke: #000000; stroke-width: 0.8"/>
      </g>
     </g>
    </g>
    <g id="xtick_4">
     <g id="line2d_7">
      <path d="M 298.952778 225.467717 
L 298.952778 7.2 
" clip-path="url(#p6390bc01d8)" style="fill: none; stroke: #b0b0b0; stroke-width: 0.5; stroke-linecap: square"/>
     </g>
     <g id="line2d_8">
      <g>
       <use xlink:href="#mf602ee35e8" x="298.952778" y="225.467717" style="stroke: #000000; stroke-width: 0.8"/>
      </g>
     </g>
    </g>
    <g id="xtick_5">
     <g id="line2d_9">
      <path d="M 382.642317 225.467717 
L 382.642317 7.2 
" clip-path="url(#p6390bc01d8)" style="fill: none; stroke: #b0b0b0; stroke-width: 0.5; stroke-linecap: square"/>
     </g>
     <g id="line2d_10">
      <g>
       <use xlink:href="#mf602ee35e8" x="382.642317" y="225.467717" style="stroke: #000000; stroke-width: 0.8"/>
      </g>
     </g>
    </g>
    <g id="xtick_6">
     <g id="line2d_11">
      <path d="M 466.331855 225.467717 
L 466.331855 7.2 
" clip-path="url(#p6390bc01d8)" style="fill: none; stroke: #b0b0b0; stroke-width: 0.5; stroke-linecap: square"/>
     </g>
     <g id="line2d_12">
      <g>
       <use xlink:href="#mf602ee35e8" x="466.331855" y="225.467717" style="stroke: #000000; stroke-width: 0.8"/>
      </g>
     </g>
    </g>
    <g id="xtick_7">
     <g id="line2d_13">
      <path d="M 26.961777 225.467717 
L 26.961777 7.2 
" clip-path="url(#p6390bc01d8)" style="fill: none; stroke-dasharray: 0.5,0.825; stroke-dashoffset: 0; stroke: #b0b0b0; stroke-width: 0.5"/>
     </g>
     <g id="line2d_14">
      <defs>
       <path id="m5520def807" d="M 0 0 
L 0 2 
" style="stroke: #000000; stroke-width: 0.6"/>
      </defs>
      <g>
       <use xlink:href="#m5520def807" x="26.961777" y="225.467717" style="stroke: #000000; stroke-width: 0.6"/>
      </g>
     </g>
    </g>
    <g id="xtick_8">
     <g id="line2d_15">
      <path d="M 68.806546 225.467717 
L 68.806546 7.2 
" clip-path="url(#p6390bc01d8)" style="fill: none; stroke-dasharray: 0.5,0.825; stroke-dashoffset: 0; stroke: #b0b0b0; stroke-width: 0.5"/>
     </g>
     <g id="line2d_16">
      <g>
       <use xlink:href="#m5520def807" x="68.806546" y="225.467717" style="stroke: #000000; stroke-width: 0.6"/>
      </g>
     </g>
    </g>
    <g id="xtick_9">
     <g id="line2d_17">
      <path d="M 89.728931 225.467717 
L 89.728931 7.2 
" clip-path="url(#p6390bc01d8)" style="fill: none; stroke-dasharray: 0.5,0.825; stroke-dashoffset: 0; stroke: #b0b0b0; stroke-width: 0.5"/>
     </g>
     <g id="line2d_18">
      <g>
       <use xlink:href="#m5520def807" x="89.728931" y="225.467717" style="stroke: #000000; stroke-width: 0.6"/>
      </g>
     </g>
    </g>
    <g id="xtick_10">
     <g id="line2d_19">
      <path d="M 110.651315 225.467717 
L 110.651315 7.2 
" clip-path="url(#p6390bc01d8)" style="fill: none; stroke-dasharray: 0.5,0.825; stroke-dashoffset: 0; stroke: #b0b0b0; stroke-width: 0.5"/>
     </g>
     <g id="line2d_20">
      <g>
       <use xlink:href="#m5520def807" x="110.651315" y="225.467717" style="stroke: #000000; stroke-width: 0.6"/>
      </g>
     </g>
    </g>
    <g id="xtick_11">
     <g id="line2d_21">
      <path d="M 152.496085 225.467717 
L 152.496085 7.2 
" clip-path="url(#p6390bc01d8)" style="fill: none; stroke-dasharray: 0.5,0.825; stroke-dashoffset: 0; stroke: #b0b0b0; stroke-width: 0.5"/>
     </g>
     <g id="line2d_22">
      <g>
       <use xlink:href="#m5520def807" x="152.496085" y="225.467717" style="stroke: #000000; stroke-width: 0.6"/>
      </g>
     </g>
    </g>
    <g id="xtick_12">
     <g id="line2d_23">
      <path d="M 173.418469 225.467717 
L 173.418469 7.2 
" clip-path="url(#p6390bc01d8)" style="fill: none; stroke-dasharray: 0.5,0.825; stroke-dashoffset: 0; stroke: #b0b0b0; stroke-width: 0.5"/>
     </g>
     <g id="line2d_24">
      <g>
       <use xlink:href="#m5520def807" x="173.418469" y="225.467717" style="stroke: #000000; stroke-width: 0.6"/>
      </g>
     </g>
    </g>
    <g id="xtick_13">
     <g id="line2d_25">
      <path d="M 194.340854 225.467717 
L 194.340854 7.2 
" clip-path="url(#p6390bc01d8)" style="fill: none; stroke-dasharray: 0.5,0.825; stroke-dashoffset: 0; stroke: #b0b0b0; stroke-width: 0.5"/>
     </g>
     <g id="line2d_26">
      <g>
       <use xlink:href="#m5520def807" x="194.340854" y="225.467717" style="stroke: #000000; stroke-width: 0.6"/>
      </g>
     </g>
    </g>
    <g id="xtick_14">
     <g id="line2d_27">
      <path d="M 236.185624 225.467717 
L 236.185624 7.2 
" clip-path="url(#p6390bc01d8)" style="fill: none; stroke-dasharray: 0.5,0.825; stroke-dashoffset: 0; stroke: #b0b0b0; stroke-width: 0.5"/>
     </g>
     <g id="line2d_28">
      <g>
       <use xlink:href="#m5520def807" x="236.185624" y="225.467717" style="stroke: #000000; stroke-width: 0.6"/>
      </g>
     </g>
    </g>
    <g id="xtick_15">
     <g id="line2d_29">
      <path d="M 257.108008 225.467717 
L 257.108008 7.2 
" clip-path="url(#p6390bc01d8)" style="fill: none; stroke-dasharray: 0.5,0.825; stroke-dashoffset: 0; stroke: #b0b0b0; stroke-width: 0.5"/>
     </g>
     <g id="line2d_30">
      <g>
       <use xlink:href="#m5520def807" x="257.108008" y="225.467717" style="stroke: #000000; stroke-width: 0.6"/>
      </g>
     </g>
    </g>
    <g id="xtick_16">
     <g id="line2d_31">
      <path d="M 278.030393 225.467717 
L 278.030393 7.2 
" clip-path="url(#p6390bc01d8)" style="fill: none; stroke-dasharray: 0.5,0.825; stroke-dashoffset: 0; stroke: #b0b0b0; stroke-width: 0.5"/>
     </g>
     <g id="line2d_32">
      <g>
       <use xlink:href="#m5520def807" x="278.030393" y="225.467717" style="stroke: #000000; stroke-width: 0.6"/>
      </g>
     </g>
    </g>
    <g id="xtick_17">
     <g id="line2d_33">
      <path d="M 319.875162 225.467717 
L 319.875162 7.2 
" clip-path="url(#p6390bc01d8)" style="fill: none; stroke-dasharray: 0.5,0.825; stroke-dashoffset: 0; stroke: #b0b0b0; stroke-width: 0.5"/>
     </g>
     <g id="line2d_34">
      <g>
       <use xlink:href="#m5520def807" x="319.875162" y="225.467717" style="stroke: #000000; stroke-width: 0.6"/>
      </g>
     </g>
    </g>
    <g id="xtick_18">
     <g id="line2d_35">
      <path d="M 340.797547 225.467717 
L 340.797547 7.2 
" clip-path="url(#p6390bc01d8)" style="fill: none; stroke-dasharray: 0.5,0.825; stroke-dashoffset: 0; stroke: #b0b0b0; stroke-width: 0.5"/>
     </g>
     <g id="line2d_36">
      <g>
       <use xlink:href="#m5520def807" x="340.797547" y="225.467717" style="stroke: #000000; stroke-width: 0.6"/>
      </g>
     </g>
    </g>
    <g id="xtick_19">
     <g id="line2d_37">
      <path d="M 361.719932 225.467717 
L 361.719932 7.2 
" clip-path="url(#p6390bc01d8)" style="fill: none; stroke-dasharray: 0.5,0.825; stroke-dashoffset: 0; stroke: #b0b0b0; stroke-width: 0.5"/>
     </g>
     <g id="line2d_38">
      <g>
       <use xlink:href="#m5520def807" x="361.719932" y="225.467717" style="stroke: #000000; stroke-width: 0.6"/>
      </g>
     </g>
    </g>
    <g id="xtick_20">
     <g id="line2d_39">
      <path d="M 403.564701 225.467717 
L 403.564701 7.2 
" clip-path="url(#p6390bc01d8)" style="fill: none; stroke-dasharray: 0.5,0.825; stroke-dashoffset: 0; stroke: #b0b0b0; stroke-width: 0.5"/>
     </g>
     <g id="line2d_40">
      <g>
       <use xlink:href="#m5520def807" x="403.564701" y="225.467717" style="stroke: #000000; stroke-width: 0.6"/>
      </g>
     </g>
    </g>
    <g id="xtick_21">
     <g id="line2d_41">
      <path d="M 424.487086 225.467717 
L 424.487086 7.2 
" clip-path="url(#p6390bc01d8)" style="fill: none; stroke-dasharray: 0.5,0.825; stroke-dashoffset: 0; stroke: #b0b0b0; stroke-width: 0.5"/>
     </g>
     <g id="line2d_42">
      <g>
       <use xlink:href="#m5520def807" x="424.487086" y="225.467717" style="stroke: #000000; stroke-width: 0.6"/>
      </g>
     </g>
    </g>
    <g id="xtick_22">
     <g id="line2d_43">
      <path d="M 445.409471 225.467717 
L 445.409471 7.2 
" clip-path="url(#p6390bc01d8)" style="fill: none; stroke-dasharray: 0.5,0.825; stroke-dashoffset: 0; stroke: #b0b0b0; stroke-width: 0.5"/>
     </g>
     <g id="line2d_44">
      <g>
       <use xlink:href="#m5520def807" x="445.409471" y="225.467717" style="stroke: #000000; stroke-width: 0.6"/>
      </g>
     </g>
    </g>
    <g id="text_1">
     <!-- Distance or Time -->
     <g transform="translate(201.633691 241.557092) scale(0.12 -0.12)">
      <defs>
       <path id="ArialMT-44" d="M 494 0 
L 494 4581 
L 2072 4581 
Q 2606 4581 2888 4516 
Q 3281 4425 3559 4188 
Q 3922 3881 4101 3404 
Q 4281 2928 4281 2316 
Q 4281 1794 4159 1391 
Q 4038 988 3847 723 
Q 3656 459 3429 307 
Q 3203 156 2883 78 
Q 2563 0 2147 0 
L 494 0 
z
M 1100 541 
L 2078 541 
Q 2531 541 2789 625 
Q 3047 709 3200 863 
Q 3416 1078 3536 1442 
Q 3656 1806 3656 2325 
Q 3656 3044 3420 3430 
Q 3184 3816 2847 3947 
Q 2603 4041 2063 4041 
L 1100 4041 
L 1100 541 
z
" transform="scale(0.015625)"/>
       <path id="ArialMT-69" d="M 425 3934 
L 425 4581 
L 988 4581 
L 988 3934 
L 425 3934 
z
M 425 0 
L 425 3319 
L 988 3319 
L 988 0 
L 425 0 
z
" transform="scale(0.015625)"/>
       <path id="ArialMT-73" d="M 197 991 
L 753 1078 
Q 800 744 1014 566 
Q 1228 388 1613 388 
Q 2000 388 2187 545 
Q 2375 703 2375 916 
Q 2375 1106 2209 1216 
Q 2094 1291 1634 1406 
Q 1016 1563 777 1677 
Q 538 1791 414 1992 
Q 291 2194 291 2438 
Q 291 2659 392 2848 
Q 494 3038 669 3163 
Q 800 3259 1026 3326 
Q 1253 3394 1513 3394 
Q 1903 3394 2198 3281 
Q 2494 3169 2634 2976 
Q 2775 2784 2828 2463 
L 2278 2388 
Q 2241 2644 2061 2787 
Q 1881 2931 1553 2931 
Q 1166 2931 1000 2803 
Q 834 2675 834 2503 
Q 834 2394 903 2306 
Q 972 2216 1119 2156 
Q 1203 2125 1616 2013 
Q 2213 1853 2448 1751 
Q 2684 1650 2818 1456 
Q 2953 1263 2953 975 
Q 2953 694 2789 445 
Q 2625 197 2315 61 
Q 2006 -75 1616 -75 
Q 969 -75 630 194 
Q 291 463 197 991 
z
" transform="scale(0.015625)"/>
       <path id="ArialMT-74" d="M 1650 503 
L 1731 6 
Q 1494 -44 1306 -44 
Q 1000 -44 831 53 
Q 663 150 594 308 
Q 525 466 525 972 
L 525 2881 
L 113 2881 
L 113 3319 
L 525 3319 
L 525 4141 
L 1084 4478 
L 1084 3319 
L 1650 3319 
L 1650 2881 
L 1084 2881 
L 1084 941 
Q 1084 700 1114 631 
Q 1144 563 1211 522 
Q 1278 481 1403 481 
Q 1497 481 1650 503 
z
" transform="scale(0.015625)"/>
       <path id="ArialMT-61" d="M 2588 409 
Q 2275 144 1986 34 
Q 1697 -75 1366 -75 
Q 819 -75 525 192 
Q 231 459 231 875 
Q 231 1119 342 1320 
Q 453 1522 633 1644 
Q 813 1766 1038 1828 
Q 1203 1872 1538 1913 
Q 2219 1994 2541 2106 
Q 2544 2222 2544 2253 
Q 2544 2597 2384 2738 
Q 2169 2928 1744 2928 
Q 1347 2928 1158 2789 
Q 969 2650 878 2297 
L 328 2372 
Q 403 2725 575 2942 
Q 747 3159 1072 3276 
Q 1397 3394 1825 3394 
Q 2250 3394 2515 3294 
Q 2781 3194 2906 3042 
Q 3031 2891 3081 2659 
Q 3109 2516 3109 2141 
L 3109 1391 
Q 3109 606 3145 398 
Q 3181 191 3288 0 
L 2700 0 
Q 2613 175 2588 409 
z
M 2541 1666 
Q 2234 1541 1622 1453 
Q 1275 1403 1131 1340 
Q 988 1278 909 1158 
Q 831 1038 831 891 
Q 831 666 1001 516 
Q 1172 366 1500 366 
Q 1825 366 2078 508 
Q 2331 650 2450 897 
Q 2541 1088 2541 1459 
L 2541 1666 
z
" transform="scale(0.015625)"/>
       <path id="ArialMT-6e" d="M 422 0 
L 422 3319 
L 928 3319 
L 928 2847 
Q 1294 3394 1984 3394 
Q 2284 3394 2536 3286 
Q 2788 3178 2913 3003 
Q 3038 2828 3088 2588 
Q 3119 2431 3119 2041 
L 3119 0 
L 2556 0 
L 2556 2019 
Q 2556 2363 2490 2533 
Q 2425 2703 2258 2804 
Q 2091 2906 1866 2906 
Q 1506 2906 1245 2678 
Q 984 2450 984 1813 
L 984 0 
L 422 0 
z
" transform="scale(0.015625)"/>
       <path id="ArialMT-63" d="M 2588 1216 
L 3141 1144 
Q 3050 572 2676 248 
Q 2303 -75 1759 -75 
Q 1078 -75 664 370 
Q 250 816 250 1647 
Q 250 2184 428 2587 
Q 606 2991 970 3192 
Q 1334 3394 1763 3394 
Q 2303 3394 2647 3120 
Q 2991 2847 3088 2344 
L 2541 2259 
Q 2463 2594 2264 2762 
Q 2066 2931 1784 2931 
Q 1359 2931 1093 2626 
Q 828 2322 828 1663 
Q 828 994 1084 691 
Q 1341 388 1753 388 
Q 2084 388 2306 591 
Q 2528 794 2588 1216 
z
" transform="scale(0.015625)"/>
       <path id="ArialMT-65" d="M 2694 1069 
L 3275 997 
Q 3138 488 2766 206 
Q 2394 -75 1816 -75 
Q 1088 -75 661 373 
Q 234 822 234 1631 
Q 234 2469 665 2931 
Q 1097 3394 1784 3394 
Q 2450 3394 2872 2941 
Q 3294 2488 3294 1666 
Q 3294 1616 3291 1516 
L 816 1516 
Q 847 969 1125 678 
Q 1403 388 1819 388 
Q 2128 388 2347 550 
Q 2566 713 2694 1069 
z
M 847 1978 
L 2700 1978 
Q 2663 2397 2488 2606 
Q 2219 2931 1791 2931 
Q 1403 2931 1139 2672 
Q 875 2413 847 1978 
z
" transform="scale(0.015625)"/>
       <path id="ArialMT-20" transform="scale(0.015625)"/>
       <path id="ArialMT-6f" d="M 213 1659 
Q 213 2581 725 3025 
Q 1153 3394 1769 3394 
Q 2453 3394 2887 2945 
Q 3322 2497 3322 1706 
Q 3322 1066 3130 698 
Q 2938 331 2570 128 
Q 2203 -75 1769 -75 
Q 1072 -75 642 372 
Q 213 819 213 1659 
z
M 791 1659 
Q 791 1022 1069 705 
Q 1347 388 1769 388 
Q 2188 388 2466 706 
Q 2744 1025 2744 1678 
Q 2744 2294 2464 2611 
Q 2184 2928 1769 2928 
Q 1347 2928 1069 2612 
Q 791 2297 791 1659 
z
" transform="scale(0.015625)"/>
       <path id="ArialMT-72" d="M 416 0 
L 416 3319 
L 922 3319 
L 922 2816 
Q 1116 3169 1280 3281 
Q 1444 3394 1641 3394 
Q 1925 3394 2219 3213 
L 2025 2691 
Q 1819 2813 1613 2813 
Q 1428 2813 1281 2702 
Q 1134 2591 1072 2394 
Q 978 2094 978 1738 
L 978 0 
L 416 0 
z
" transform="scale(0.015625)"/>
       <path id="ArialMT-54" d="M 1659 0 
L 1659 4041 
L 150 4041 
L 150 4581 
L 3781 4581 
L 3781 4041 
L 2266 4041 
L 2266 0 
L 1659 0 
z
" transform="scale(0.015625)"/>
       <path id="ArialMT-6d" d="M 422 0 
L 422 3319 
L 925 3319 
L 925 2853 
Q 1081 3097 1340 3245 
Q 1600 3394 1931 3394 
Q 2300 3394 2536 3241 
Q 2772 3088 2869 2813 
Q 3263 3394 3894 3394 
Q 4388 3394 4653 3120 
Q 4919 2847 4919 2278 
L 4919 0 
L 4359 0 
L 4359 2091 
Q 4359 2428 4304 2576 
Q 4250 2725 4106 2815 
Q 3963 2906 3769 2906 
Q 3419 2906 3187 2673 
Q 2956 2441 2956 1928 
L 2956 0 
L 2394 0 
L 2394 2156 
Q 2394 2531 2256 2718 
Q 2119 2906 1806 2906 
Q 1569 2906 1367 2781 
Q 1166 2656 1075 2415 
Q 984 2175 984 1722 
L 984 0 
L 422 0 
z
" transform="scale(0.015625)"/>
      </defs>
      <use xlink:href="#ArialMT-44"/>
      <use xlink:href="#ArialMT-69" transform="translate(72.216797 0)"/>
      <use xlink:href="#ArialMT-73" transform="translate(94.433594 0)"/>
      <use xlink:href="#ArialMT-74" transform="translate(144.433594 0)"/>
      <use xlink:href="#ArialMT-61" transform="translate(172.216797 0)"/>
      <use xlink:href="#ArialMT-6e" transform="translate(227.832031 0)"/>
      <use xlink:href="#ArialMT-63" transform="translate(283.447266 0)"/>
      <use xlink:href="#ArialMT-65" transform="translate(333.447266 0)"/>
      <use xlink:href="#ArialMT-20" transform="translate(389.0625 0)"/>
      <use xlink:href="#ArialMT-6f" transform="translate(416.845703 0)"/>
      <use xlink:href="#ArialMT-72" transform="translate(472.460938 0)"/>
      <use xlink:href="#ArialMT-20" transform="translate(505.761719 0)"/>
      <use xlink:href="#ArialMT-54" transform="translate(531.794922 0)"/>
      <use xlink:href="#ArialMT-69" transform="translate(589.128906 0)"/>
      <use xlink:href="#ArialMT-6d" transform="translate(611.345703 0)"/>
      <use xlink:href="#ArialMT-65" transform="translate(694.646484 0)"/>
     </g>
    </g>
   </g>
   <g id="matplotlib.axis_2">
    <g id="ytick_1">
     <g id="line2d_45">
      <path d="M 26.961777 225.467717 
L 466.331855 225.467717 
" clip-path="url(#p6390bc01d8)" style="fill: none; stroke: #b0b0b0; stroke-width: 0.5; stroke-linecap: square"/>
     </g>
     <g id="line2d_46">
      <defs>
       <path id="m98e2d352b2" d="M 0 0 
L -3.5 0 
" style="stroke: #000000; stroke-width: 0.8"/>
      </defs>
      <g>
       <use xlink:href="#m98e2d352b2" x="26.961777" y="225.467717" style="stroke: #000000; stroke-width: 0.8"/>
      </g>
     </g>
    </g>
    <g id="ytick_2">
     <g id="line2d_47">
      <path d="M 26.961777 194.286614 
L 466.331855 194.286614 
" clip-path="url(#p6390bc01d8)" style="fill: none; stroke: #b0b0b0; stroke-width: 0.5; stroke-linecap: square"/>
     </g>
     <g id="line2d_48">
      <g>
       <use xlink:href="#m98e2d352b2" x="26.961777" y="194.286614" style="stroke: #000000; stroke-width: 0.8"/>
      </g>
     </g>
    </g>
    <g id="ytick_3">
     <g id="line2d_49">
      <path d="M 26.961777 163.105512 
L 466.331855 163.105512 
" clip-path="url(#p6390bc01d8)" style="fill: none; stroke: #b0b0b0; stroke-width: 0.5; stroke-linecap: square"/>
     </g>
     <g id="line2d_50">
      <g>
       <use xlink:href="#m98e2d352b2" x="26.961777" y="163.105512" style="stroke: #000000; stroke-width: 0.8"/>
      </g>
     </g>
    </g>
    <g id="ytick_4">
     <g id="line2d_51">
      <path d="M 26.961777 131.924409 
L 466.331855 131.924409 
" clip-path="url(#p6390bc01d8)" style="fill: none; stroke: #b0b0b0; stroke-width: 0.5; stroke-linecap: square"/>
     </g>
     <g id="line2d_52">
      <g>
       <use xlink:href="#m98e2d352b2" x="26.961777" y="131.924409" style="stroke: #000000; stroke-width: 0.8"/>
      </g>
     </g>
    </g>
    <g id="ytick_5">
     <g id="line2d_53">
      <path d="M 26.961777 100.743307 
L 466.331855 100.743307 
" clip-path="url(#p6390bc01d8)" style="fill: none; stroke: #b0b0b0; stroke-width: 0.5; stroke-linecap: square"/>
     </g>
     <g id="line2d_54">
      <g>
       <use xlink:href="#m98e2d352b2" x="26.961777" y="100.743307" style="stroke: #000000; stroke-width: 0.8"/>
      </g>
     </g>
    </g>
    <g id="ytick_6">
     <g id="line2d_55">
      <path d="M 26.961777 69.562205 
L 466.331855 69.562205 
" clip-path="url(#p6390bc01d8)" style="fill: none; stroke: #b0b0b0; stroke-width: 0.5; stroke-linecap: square"/>
     </g>
     <g id="line2d_56">
      <g>
       <use xlink:href="#m98e2d352b2" x="26.961777" y="69.562205" style="stroke: #000000; stroke-width: 0.8"/>
      </g>
     </g>
    </g>
    <g id="ytick_7">
     <g id="line2d_57">
      <path d="M 26.961777 38.381102 
L 466.331855 38.381102 
" clip-path="url(#p6390bc01d8)" style="fill: none; stroke: #b0b0b0; stroke-width: 0.5; stroke-linecap: square"/>
     </g>
     <g id="line2d_58">
      <g>
       <use xlink:href="#m98e2d352b2" x="26.961777" y="38.381102" style="stroke: #000000; stroke-width: 0.8"/>
      </g>
     </g>
    </g>
    <g id="ytick_8">
     <g id="line2d_59">
      <path d="M 26.961777 7.2 
L 466.331855 7.2 
" clip-path="url(#p6390bc01d8)" style="fill: none; stroke: #b0b0b0; stroke-width: 0.5; stroke-linecap: square"/>
     </g>
     <g id="line2d_60">
      <g>
       <use xlink:href="#m98e2d352b2" x="26.961777" y="7.2" style="stroke: #000000; stroke-width: 0.8"/>
      </g>
     </g>
    </g>
    <g id="ytick_9">
     <g id="line2d_61">
      <path d="M 26.961777 219.231496 
L 466.331855 219.231496 
" clip-path="url(#p6390bc01d8)" style="fill: none; stroke-dasharray: 0.5,0.825; stroke-dashoffset: 0; stroke: #b0b0b0; stroke-width: 0.5"/>
     </g>
     <g id="line2d_62">
      <defs>
       <path id="mdbd6d20f08" d="M 0 0 
L -2 0 
" style="stroke: #000000; stroke-width: 0.6"/>
      </defs>
      <g>
       <use xlink:href="#mdbd6d20f08" x="26.961777" y="219.231496" style="stroke: #000000; stroke-width: 0.6"/>
      </g>
     </g>
    </g>
    <g id="ytick_10">
     <g id="line2d_63">
      <path d="M 26.961777 212.995276 
L 466.331855 212.995276 
" clip-path="url(#p6390bc01d8)" style="fill: none; stroke-dasharray: 0.5,0.825; stroke-dashoffset: 0; stroke: #b0b0b0; stroke-width: 0.5"/>
     </g>
     <g id="line2d_64">
      <g>
       <use xlink:href="#mdbd6d20f08" x="26.961777" y="212.995276" style="stroke: #000000; stroke-width: 0.6"/>
      </g>
     </g>
    </g>
    <g id="ytick_11">
     <g id="line2d_65">
      <path d="M 26.961777 206.759055 
L 466.331855 206.759055 
" clip-path="url(#p6390bc01d8)" style="fill: none; stroke-dasharray: 0.5,0.825; stroke-dashoffset: 0; stroke: #b0b0b0; stroke-width: 0.5"/>
     </g>
     <g id="line2d_66">
      <g>
       <use xlink:href="#mdbd6d20f08" x="26.961777" y="206.759055" style="stroke: #000000; stroke-width: 0.6"/>
      </g>
     </g>
    </g>
    <g id="ytick_12">
     <g id="line2d_67">
      <path d="M 26.961777 200.522835 
L 466.331855 200.522835 
" clip-path="url(#p6390bc01d8)" style="fill: none; stroke-dasharray: 0.5,0.825; stroke-dashoffset: 0; stroke: #b0b0b0; stroke-width: 0.5"/>
     </g>
     <g id="line2d_68">
      <g>
       <use xlink:href="#mdbd6d20f08" x="26.961777" y="200.522835" style="stroke: #000000; stroke-width: 0.6"/>
      </g>
     </g>
    </g>
    <g id="ytick_13">
     <g id="line2d_69">
      <path d="M 26.961777 188.050394 
L 466.331855 188.050394 
" clip-path="url(#p6390bc01d8)" style="fill: none; stroke-dasharray: 0.5,0.825; stroke-dashoffset: 0; stroke: #b0b0b0; stroke-width: 0.5"/>
     </g>
     <g id="line2d_70">
      <g>
       <use xlink:href="#mdbd6d20f08" x="26.961777" y="188.050394" style="stroke: #000000; stroke-width: 0.6"/>
      </g>
     </g>
    </g>
    <g id="ytick_14">
     <g id="line2d_71">
      <path d="M 26.961777 181.814173 
L 466.331855 181.814173 
" clip-path="url(#p6390bc01d8)" style="fill: none; stroke-dasharray: 0.5,0.825; stroke-dashoffset: 0; stroke: #b0b0b0; stroke-width: 0.5"/>
     </g>
     <g id="line2d_72">
      <g>
       <use xlink:href="#mdbd6d20f08" x="26.961777" y="181.814173" style="stroke: #000000; stroke-width: 0.6"/>
      </g>
     </g>
    </g>
    <g id="ytick_15">
     <g id="line2d_73">
      <path d="M 26.961777 175.577953 
L 466.331855 175.577953 
" clip-path="url(#p6390bc01d8)" style="fill: none; stroke-dasharray: 0.5,0.825; stroke-dashoffset: 0; stroke: #b0b0b0; stroke-width: 0.5"/>
     </g>
     <g id="line2d_74">
      <g>
       <use xlink:href="#mdbd6d20f08" x="26.961777" y="175.577953" style="stroke: #000000; stroke-width: 0.6"/>
      </g>
     </g>
    </g>
    <g id="ytick_16">
     <g id="line2d_75">
      <path d="M 26.961777 169.341732 
L 466.331855 169.341732 
" clip-path="url(#p6390bc01d8)" style="fill: none; stroke-dasharray: 0.5,0.825; stroke-dashoffset: 0; stroke: #b0b0b0; stroke-width: 0.5"/>
     </g>
     <g id="line2d_76">
      <g>
       <use xlink:href="#mdbd6d20f08" x="26.961777" y="169.341732" style="stroke: #000000; stroke-width: 0.6"/>
      </g>
     </g>
    </g>
    <g id="ytick_17">
     <g id="line2d_77">
      <path d="M 26.961777 156.869291 
L 466.331855 156.869291 
" clip-path="url(#p6390bc01d8)" style="fill: none; stroke-dasharray: 0.5,0.825; stroke-dashoffset: 0; stroke: #b0b0b0; stroke-width: 0.5"/>
     </g>
     <g id="line2d_78">
      <g>
       <use xlink:href="#mdbd6d20f08" x="26.961777" y="156.869291" style="stroke: #000000; stroke-width: 0.6"/>
      </g>
     </g>
    </g>
    <g id="ytick_18">
     <g id="line2d_79">
      <path d="M 26.961777 150.633071 
L 466.331855 150.633071 
" clip-path="url(#p6390bc01d8)" style="fill: none; stroke-dasharray: 0.5,0.825; stroke-dashoffset: 0; stroke: #b0b0b0; stroke-width: 0.5"/>
     </g>
     <g id="line2d_80">
      <g>
       <use xlink:href="#mdbd6d20f08" x="26.961777" y="150.633071" style="stroke: #000000; stroke-width: 0.6"/>
      </g>
     </g>
    </g>
    <g id="ytick_19">
     <g id="line2d_81">
      <path d="M 26.961777 144.39685 
L 466.331855 144.39685 
" clip-path="url(#p6390bc01d8)" style="fill: none; stroke-dasharray: 0.5,0.825; stroke-dashoffset: 0; stroke: #b0b0b0; stroke-width: 0.5"/>
     </g>
     <g id="line2d_82">
      <g>
       <use xlink:href="#mdbd6d20f08" x="26.961777" y="144.39685" style="stroke: #000000; stroke-width: 0.6"/>
      </g>
     </g>
    </g>
    <g id="ytick_20">
     <g id="line2d_83">
      <path d="M 26.961777 138.16063 
L 466.331855 138.16063 
" clip-path="url(#p6390bc01d8)" style="fill: none; stroke-dasharray: 0.5,0.825; stroke-dashoffset: 0; stroke: #b0b0b0; stroke-width: 0.5"/>
     </g>
     <g id="line2d_84">
      <g>
       <use xlink:href="#mdbd6d20f08" x="26.961777" y="138.16063" style="stroke: #000000; stroke-width: 0.6"/>
      </g>
     </g>
    </g>
    <g id="ytick_21">
     <g id="line2d_85">
      <path d="M 26.961777 125.688189 
L 466.331855 125.688189 
" clip-path="url(#p6390bc01d8)" style="fill: none; stroke-dasharray: 0.5,0.825; stroke-dashoffset: 0; stroke: #b0b0b0; stroke-width: 0.5"/>
     </g>
     <g id="line2d_86">
      <g>
       <use xlink:href="#mdbd6d20f08" x="26.961777" y="125.688189" style="stroke: #000000; stroke-width: 0.6"/>
      </g>
     </g>
    </g>
    <g id="ytick_22">
     <g id="line2d_87">
      <path d="M 26.961777 119.451969 
L 466.331855 119.451969 
" clip-path="url(#p6390bc01d8)" style="fill: none; stroke-dasharray: 0.5,0.825; stroke-dashoffset: 0; stroke: #b0b0b0; stroke-width: 0.5"/>
     </g>
     <g id="line2d_88">
      <g>
       <use xlink:href="#mdbd6d20f08" x="26.961777" y="119.451969" style="stroke: #000000; stroke-width: 0.6"/>
      </g>
     </g>
    </g>
    <g id="ytick_23">
     <g id="line2d_89">
      <path d="M 26.961777 113.215748 
L 466.331855 113.215748 
" clip-path="url(#p6390bc01d8)" style="fill: none; stroke-dasharray: 0.5,0.825; stroke-dashoffset: 0; stroke: #b0b0b0; stroke-width: 0.5"/>
     </g>
     <g id="line2d_90">
      <g>
       <use xlink:href="#mdbd6d20f08" x="26.961777" y="113.215748" style="stroke: #000000; stroke-width: 0.6"/>
      </g>
     </g>
    </g>
    <g id="ytick_24">
     <g id="line2d_91">
      <path d="M 26.961777 106.979528 
L 466.331855 106.979528 
" clip-path="url(#p6390bc01d8)" style="fill: none; stroke-dasharray: 0.5,0.825; stroke-dashoffset: 0; stroke: #b0b0b0; stroke-width: 0.5"/>
     </g>
     <g id="line2d_92">
      <g>
       <use xlink:href="#mdbd6d20f08" x="26.961777" y="106.979528" style="stroke: #000000; stroke-width: 0.6"/>
      </g>
     </g>
    </g>
    <g id="ytick_25">
     <g id="line2d_93">
      <path d="M 26.961777 94.507087 
L 466.331855 94.507087 
" clip-path="url(#p6390bc01d8)" style="fill: none; stroke-dasharray: 0.5,0.825; stroke-dashoffset: 0; stroke: #b0b0b0; stroke-width: 0.5"/>
     </g>
     <g id="line2d_94">
      <g>
       <use xlink:href="#mdbd6d20f08" x="26.961777" y="94.507087" style="stroke: #000000; stroke-width: 0.6"/>
      </g>
     </g>
    </g>
    <g id="ytick_26">
     <g id="line2d_95">
      <path d="M 26.961777 88.270866 
L 466.331855 88.270866 
" clip-path="url(#p6390bc01d8)" style="fill: none; stroke-dasharray: 0.5,0.825; stroke-dashoffset: 0; stroke: #b0b0b0; stroke-width: 0.5"/>
     </g>
     <g id="line2d_96">
      <g>
       <use xlink:href="#mdbd6d20f08" x="26.961777" y="88.270866" style="stroke: #000000; stroke-width: 0.6"/>
      </g>
     </g>
    </g>
    <g id="ytick_27">
     <g id="line2d_97">
      <path d="M 26.961777 82.034646 
L 466.331855 82.034646 
" clip-path="url(#p6390bc01d8)" style="fill: none; stroke-dasharray: 0.5,0.825; stroke-dashoffset: 0; stroke: #b0b0b0; stroke-width: 0.5"/>
     </g>
     <g id="line2d_98">
      <g>
       <use xlink:href="#mdbd6d20f08" x="26.961777" y="82.034646" style="stroke: #000000; stroke-width: 0.6"/>
      </g>
     </g>
    </g>
    <g id="ytick_28">
     <g id="line2d_99">
      <path d="M 26.961777 75.798425 
L 466.331855 75.798425 
" clip-path="url(#p6390bc01d8)" style="fill: none; stroke-dasharray: 0.5,0.825; stroke-dashoffset: 0; stroke: #b0b0b0; stroke-width: 0.5"/>
     </g>
     <g id="line2d_100">
      <g>
       <use xlink:href="#mdbd6d20f08" x="26.961777" y="75.798425" style="stroke: #000000; stroke-width: 0.6"/>
      </g>
     </g>
    </g>
    <g id="ytick_29">
     <g id="line2d_101">
      <path d="M 26.961777 63.325984 
L 466.331855 63.325984 
" clip-path="url(#p6390bc01d8)" style="fill: none; stroke-dasharray: 0.5,0.825; stroke-dashoffset: 0; stroke: #b0b0b0; stroke-width: 0.5"/>
     </g>
     <g id="line2d_102">
      <g>
       <use xlink:href="#mdbd6d20f08" x="26.961777" y="63.325984" style="stroke: #000000; stroke-width: 0.6"/>
      </g>
     </g>
    </g>
    <g id="ytick_30">
     <g id="line2d_103">
      <path d="M 26.961777 57.089764 
L 466.331855 57.089764 
" clip-path="url(#p6390bc01d8)" style="fill: none; stroke-dasharray: 0.5,0.825; stroke-dashoffset: 0; stroke: #b0b0b0; stroke-width: 0.5"/>
     </g>
     <g id="line2d_104">
      <g>
       <use xlink:href="#mdbd6d20f08" x="26.961777" y="57.089764" style="stroke: #000000; stroke-width: 0.6"/>
      </g>
     </g>
    </g>
    <g id="ytick_31">
     <g id="line2d_105">
      <path d="M 26.961777 50.853543 
L 466.331855 50.853543 
" clip-path="url(#p6390bc01d8)" style="fill: none; stroke-dasharray: 0.5,0.825; stroke-dashoffset: 0; stroke: #b0b0b0; stroke-width: 0.5"/>
     </g>
     <g id="line2d_106">
      <g>
       <use xlink:href="#mdbd6d20f08" x="26.961777" y="50.853543" style="stroke: #000000; stroke-width: 0.6"/>
      </g>
     </g>
    </g>
    <g id="ytick_32">
     <g id="line2d_107">
      <path d="M 26.961777 44.617323 
L 466.331855 44.617323 
" clip-path="url(#p6390bc01d8)" style="fill: none; stroke-dasharray: 0.5,0.825; stroke-dashoffset: 0; stroke: #b0b0b0; stroke-width: 0.5"/>
     </g>
     <g id="line2d_108">
      <g>
       <use xlink:href="#mdbd6d20f08" x="26.961777" y="44.617323" style="stroke: #000000; stroke-width: 0.6"/>
      </g>
     </g>
    </g>
    <g id="ytick_33">
     <g id="line2d_109">
      <path d="M 26.961777 32.144882 
L 466.331855 32.144882 
" clip-path="url(#p6390bc01d8)" style="fill: none; stroke-dasharray: 0.5,0.825; stroke-dashoffset: 0; stroke: #b0b0b0; stroke-width: 0.5"/>
     </g>
     <g id="line2d_110">
      <g>
       <use xlink:href="#mdbd6d20f08" x="26.961777" y="32.144882" style="stroke: #000000; stroke-width: 0.6"/>
      </g>
     </g>
    </g>
    <g id="ytick_34">
     <g id="line2d_111">
      <path d="M 26.961777 25.908661 
L 466.331855 25.908661 
" clip-path="url(#p6390bc01d8)" style="fill: none; stroke-dasharray: 0.5,0.825; stroke-dashoffset: 0; stroke: #b0b0b0; stroke-width: 0.5"/>
     </g>
     <g id="line2d_112">
      <g>
       <use xlink:href="#mdbd6d20f08" x="26.961777" y="25.908661" style="stroke: #000000; stroke-width: 0.6"/>
      </g>
     </g>
    </g>
    <g id="ytick_35">
     <g id="line2d_113">
      <path d="M 26.961777 19.672441 
L 466.331855 19.672441 
" clip-path="url(#p6390bc01d8)" style="fill: none; stroke-dasharray: 0.5,0.825; stroke-dashoffset: 0; stroke: #b0b0b0; stroke-width: 0.5"/>
     </g>
     <g id="line2d_114">
      <g>
       <use xlink:href="#mdbd6d20f08" x="26.961777" y="19.672441" style="stroke: #000000; stroke-width: 0.6"/>
      </g>
     </g>
    </g>
    <g id="ytick_36">
     <g id="line2d_115">
      <path d="M 26.961777 13.43622 
L 466.331855 13.43622 
" clip-path="url(#p6390bc01d8)" style="fill: none; stroke-dasharray: 0.5,0.825; stroke-dashoffset: 0; stroke: #b0b0b0; stroke-width: 0.5"/>
     </g>
     <g id="line2d_116">
      <g>
       <use xlink:href="#mdbd6d20f08" x="26.961777" y="13.43622" style="stroke: #000000; stroke-width: 0.6"/>
      </g>
     </g>
    </g>
    <g id="text_2">
     <!-- Altitude -->
     <g transform="translate(15.789375 136.345733) rotate(-90) scale(0.12 -0.12)">
      <defs>
       <path id="ArialMT-41" d="M -9 0 
L 1750 4581 
L 2403 4581 
L 4278 0 
L 3588 0 
L 3053 1388 
L 1138 1388 
L 634 0 
L -9 0 
z
M 1313 1881 
L 2866 1881 
L 2388 3150 
Q 2169 3728 2063 4100 
Q 1975 3659 1816 3225 
L 1313 1881 
z
" transform="scale(0.015625)"/>
       <path id="ArialMT-6c" d="M 409 0 
L 409 4581 
L 972 4581 
L 972 0 
L 409 0 
z
" transform="scale(0.015625)"/>
       <path id="ArialMT-75" d="M 2597 0 
L 2597 488 
Q 2209 -75 1544 -75 
Q 1250 -75 995 37 
Q 741 150 617 320 
Q 494 491 444 738 
Q 409 903 409 1263 
L 409 3319 
L 972 3319 
L 972 1478 
Q 972 1038 1006 884 
Q 1059 663 1231 536 
Q 1403 409 1656 409 
Q 1909 409 2131 539 
Q 2353 669 2445 892 
Q 2538 1116 2538 1541 
L 2538 3319 
L 3100 3319 
L 3100 0 
L 2597 0 
z
" transform="scale(0.015625)"/>
       <path id="ArialMT-64" d="M 2575 0 
L 2575 419 
Q 2259 -75 1647 -75 
Q 1250 -75 917 144 
Q 584 363 401 755 
Q 219 1147 219 1656 
Q 219 2153 384 2558 
Q 550 2963 881 3178 
Q 1213 3394 1622 3394 
Q 1922 3394 2156 3267 
Q 2391 3141 2538 2938 
L 2538 4581 
L 3097 4581 
L 3097 0 
L 2575 0 
z
M 797 1656 
Q 797 1019 1065 703 
Q 1334 388 1700 388 
Q 2069 388 2326 689 
Q 2584 991 2584 1609 
Q 2584 2291 2321 2609 
Q 2059 2928 1675 2928 
Q 1300 2928 1048 2622 
Q 797 2316 797 1656 
z
" transform="scale(0.015625)"/>
      </defs>
      <use xlink:href="#ArialMT-41"/>
      <use xlink:href="#ArialMT-6c" transform="translate(66.699219 0)"/>
      <use xlink:href="#ArialMT-74" transform="translate(88.916016 0)"/>
      <use xlink:href="#ArialMT-69" transform="translate(116.699219 0)"/>
      <use xlink:href="#ArialMT-74" transform="translate(138.916016 0)"/>
      <use xlink:href="#ArialMT-75" transform="translate(166.699219 0)"/>
      <use xlink:href="#ArialMT-64" transform="translate(222.314453 0)"/>
      <use xlink:href="#ArialMT-65" transform="translate(277.929688 0)"/>
     </g>
    </g>
   </g>
   <g id="line2d_117">
    <path d="M 47.884161 225.467717 
" clip-path="url(#p6390bc01d8)" style="fill: none; stroke: #000000; stroke-width: 1.5; stroke-linecap: square"/>
    <defs>
     <path id="m23bc83d216" d="M 0 2 
C 0.530406 2 1.03916 1.789267 1.414214 1.414214 
C 1.789267 1.03916 2 0.530406 2 0 
C 2 -0.530406 1.789267 -1.03916 1.414214 -1.414214 
C 1.03916 -1.789267 0.530406 -2 0 -2 
C -0.530406 -2 -1.03916 -1.789267 -1.414214 -1.414214 
C -1.789267 -1.03916 -2 -0.530406 -2 0 
C -2 0.530406 -1.789267 1.03916 -1.414214 1.414214 
C -1.03916 1.789267 -0.530406 2 0 2 
z
" style="stroke: #000000"/>
    </defs>
    <g clip-path="url(#p6390bc01d8)">
     <use xlink:href="#m23bc83d216" x="47.884161" y="225.467717" style="stroke: #000000"/>
    </g>
   </g>
   <g id="line2d_118">
    <path d="M 382.642317 225.467717 
" clip-path="url(#p6390bc01d8)" style="fill: none; stroke: #000000; stroke-width: 1.5; stroke-linecap: square"/>
    <g clip-path="url(#p6390bc01d8)">
     <use xlink:href="#m23bc83d216" x="382.642317" y="225.467717" style="stroke: #000000"/>
    </g>
   </g>
   <g id="line2d_119">
    <path d="M 382.642317 38.381102 
" clip-path="url(#p6390bc01d8)" style="fill: none; stroke: #000000; stroke-width: 1.5; stroke-linecap: square"/>
    <g clip-path="url(#p6390bc01d8)">
     <use xlink:href="#m23bc83d216" x="382.642317" y="38.381102" style="stroke: #000000"/>
    </g>
   </g>
   <g id="patch_5">
    <path d="M 26.961777 225.467717 
L 26.961777 7.2 
" style="fill: none; stroke: #000000; stroke-width: 0.8; stroke-linejoin: miter; stroke-linecap: square"/>
   </g>
   <g id="patch_6">
    <path d="M 466.331855 225.467717 
L 466.331855 7.2 
" style="fill: none; stroke: #000000; stroke-width: 0.8; stroke-linejoin: miter; stroke-linecap: square"/>
   </g>
   <g id="patch_7">
    <path d="M 26.961777 225.467717 
L 466.331855 225.467717 
" style="fill: none; stroke: #000000; stroke-width: 0.8; stroke-linejoin: miter; stroke-linecap: square"/>
   </g>
   <g id="patch_8">
    <path d="M 26.961777 7.2 
L 466.331855 7.2 
" style="fill: none; stroke: #000000; stroke-width: 0.8; stroke-linejoin: miter; stroke-linecap: square"/>
   </g>
   <g id="patch_9">
    <path d="M 49.410369 224.173262 
Q 90.77577 189.089153 130.435869 155.451398 
" style="fill: none; stroke: #ffa500; stroke-width: 2; stroke-linecap: round"/>
    <path d="M 125.222832 156.725856 
L 130.435869 155.451398 
L 128.327613 160.386503 
" style="fill: none; stroke: #ffa500; stroke-width: 2; stroke-linecap: round"/>
   </g>
   <g id="patch_10">
    <path d="M 135.485697 151.876172 
Q 258.157006 95.545135 378.796255 40.147225 
" style="fill: none; stroke: #ff0000; stroke-width: 2; stroke-linecap: round"/>
    <path d="M 373.432644 39.969266 
L 378.796255 40.147225 
L 375.435721 44.331339 
" style="fill: none; stroke: #ff0000; stroke-width: 2; stroke-linecap: round"/>
   </g>
   <g id="patch_11">
    <path d="M 49.192449 223.951228 
Q 79.268244 189.089178 107.8834 155.920211 
" style="fill: none; stroke-dasharray: 7.4,3.2; stroke-dashoffset: 0; stroke: #000000; stroke-width: 2; stroke-linecap: round"/>
    <path d="M 102.930748 157.986907 
L 107.8834 155.920211 
L 106.565165 161.122351 
" style="fill: none; stroke-dasharray: 7.4,3.2; stroke-dashoffset: 0; stroke: #000000; stroke-width: 2; stroke-linecap: round"/>
   </g>
   <g id="patch_12">
    <path d="M 112.3609 151.673805 
Q 204.801266 95.546931 295.33029 40.580563 
" style="fill: none; stroke-dasharray: 7.4,3.2; stroke-dashoffset: 0; stroke: #000000; stroke-width: 2; stroke-linecap: round"/>
    <path d="M 289.98177 41.020268 
L 295.33029 40.580563 
L 292.472942 45.123201 
" style="fill: none; stroke-dasharray: 7.4,3.2; stroke-dashoffset: 0; stroke: #000000; stroke-width: 2; stroke-linecap: round"/>
   </g>
   <g id="text_3">
    <!-- Level-Off -->
    <g transform="translate(248.569584 59.335107) rotate(-29) scale(0.11 -0.11)">
     <defs>
      <path id="ArialMT-4c" d="M 469 0 
L 469 4581 
L 1075 4581 
L 1075 541 
L 3331 541 
L 3331 0 
L 469 0 
z
" transform="scale(0.015625)"/>
      <path id="ArialMT-76" d="M 1344 0 
L 81 3319 
L 675 3319 
L 1388 1331 
Q 1503 1009 1600 663 
Q 1675 925 1809 1294 
L 2547 3319 
L 3125 3319 
L 1869 0 
L 1344 0 
z
" transform="scale(0.015625)"/>
      <path id="ArialMT-2d" d="M 203 1375 
L 203 1941 
L 1931 1941 
L 1931 1375 
L 203 1375 
z
" transform="scale(0.015625)"/>
      <path id="ArialMT-4f" d="M 309 2231 
Q 309 3372 921 4017 
Q 1534 4663 2503 4663 
Q 3138 4663 3647 4359 
Q 4156 4056 4423 3514 
Q 4691 2972 4691 2284 
Q 4691 1588 4409 1038 
Q 4128 488 3612 205 
Q 3097 -78 2500 -78 
Q 1853 -78 1343 234 
Q 834 547 571 1087 
Q 309 1628 309 2231 
z
M 934 2222 
Q 934 1394 1379 917 
Q 1825 441 2497 441 
Q 3181 441 3623 922 
Q 4066 1403 4066 2288 
Q 4066 2847 3877 3264 
Q 3688 3681 3323 3911 
Q 2959 4141 2506 4141 
Q 1863 4141 1398 3698 
Q 934 3256 934 2222 
z
" transform="scale(0.015625)"/>
      <path id="ArialMT-66" d="M 556 0 
L 556 2881 
L 59 2881 
L 59 3319 
L 556 3319 
L 556 3672 
Q 556 4006 616 4169 
Q 697 4388 901 4523 
Q 1106 4659 1475 4659 
Q 1713 4659 2000 4603 
L 1916 4113 
Q 1741 4144 1584 4144 
Q 1328 4144 1222 4034 
Q 1116 3925 1116 3625 
L 1116 3319 
L 1763 3319 
L 1763 2881 
L 1116 2881 
L 1116 0 
L 556 0 
z
" transform="scale(0.015625)"/>
     </defs>
     <use xlink:href="#ArialMT-4c"/>
     <use xlink:href="#ArialMT-65" transform="translate(55.615234 0)"/>
     <use xlink:href="#ArialMT-76" transform="translate(111.230469 0)"/>
     <use xlink:href="#ArialMT-65" transform="translate(161.230469 0)"/>
     <use xlink:href="#ArialMT-6c" transform="translate(216.845703 0)"/>
     <use xlink:href="#ArialMT-2d" transform="translate(239.0625 0)"/>
     <use xlink:href="#ArialMT-4f" transform="translate(272.363281 0)"/>
     <use xlink:href="#ArialMT-66" transform="translate(350.146484 0)"/>
     <use xlink:href="#ArialMT-66" transform="translate(376.179688 0)"/>
    </g>
   </g>
   <g id="text_4">
    <!-- WP1 -->
    <g transform="translate(35.965489 240.467717) scale(0.11 -0.11)">
     <defs>
      <path id="Arial-BoldMT-57" d="M 1116 0 
L 22 4581 
L 969 4581 
L 1659 1434 
L 2497 4581 
L 3597 4581 
L 4400 1381 
L 5103 4581 
L 6034 4581 
L 4922 0 
L 3941 0 
L 3028 3425 
L 2119 0 
L 1116 0 
z
" transform="scale(0.015625)"/>
      <path id="Arial-BoldMT-50" d="M 466 0 
L 466 4581 
L 1950 4581 
Q 2794 4581 3050 4513 
Q 3444 4409 3709 4064 
Q 3975 3719 3975 3172 
Q 3975 2750 3822 2462 
Q 3669 2175 3433 2011 
Q 3197 1847 2953 1794 
Q 2622 1728 1994 1728 
L 1391 1728 
L 1391 0 
L 466 0 
z
M 1391 3806 
L 1391 2506 
L 1897 2506 
Q 2444 2506 2628 2578 
Q 2813 2650 2917 2803 
Q 3022 2956 3022 3159 
Q 3022 3409 2875 3571 
Q 2728 3734 2503 3775 
Q 2338 3806 1838 3806 
L 1391 3806 
z
" transform="scale(0.015625)"/>
      <path id="Arial-BoldMT-31" d="M 2519 0 
L 1641 0 
L 1641 3309 
Q 1159 2859 506 2644 
L 506 3441 
Q 850 3553 1253 3867 
Q 1656 4181 1806 4600 
L 2519 4600 
L 2519 0 
z
" transform="scale(0.015625)"/>
     </defs>
     <use xlink:href="#Arial-BoldMT-57"/>
     <use xlink:href="#Arial-BoldMT-50" transform="translate(94.384766 0)"/>
     <use xlink:href="#Arial-BoldMT-31" transform="translate(161.083984 0)"/>
    </g>
   </g>
   <g id="text_5">
    <!-- WP2 -->
    <g transform="translate(370.723645 240.467717) scale(0.11 -0.11)">
     <defs>
      <path id="Arial-BoldMT-32" d="M 3238 816 
L 3238 0 
L 159 0 
Q 209 463 459 877 
Q 709 1291 1447 1975 
Q 2041 2528 2175 2725 
Q 2356 2997 2356 3263 
Q 2356 3556 2198 3714 
Q 2041 3872 1763 3872 
Q 1488 3872 1325 3706 
Q 1163 3541 1138 3156 
L 263 3244 
Q 341 3969 753 4284 
Q 1166 4600 1784 4600 
Q 2463 4600 2850 4234 
Q 3238 3869 3238 3325 
Q 3238 3016 3127 2736 
Q 3016 2456 2775 2150 
Q 2616 1947 2200 1565 
Q 1784 1184 1673 1059 
Q 1563 934 1494 816 
L 3238 816 
z
" transform="scale(0.015625)"/>
     </defs>
     <use xlink:href="#Arial-BoldMT-57"/>
     <use xlink:href="#Arial-BoldMT-50" transform="translate(94.384766 0)"/>
     <use xlink:href="#Arial-BoldMT-32" transform="translate(161.083984 0)"/>
    </g>
   </g>
   <g id="text_6">
    <!-- WP2 -->
    <g transform="translate(370.723645 33.381102) scale(0.11 -0.11)">
     <use xlink:href="#Arial-BoldMT-57"/>
     <use xlink:href="#Arial-BoldMT-50" transform="translate(94.384766 0)"/>
     <use xlink:href="#Arial-BoldMT-32" transform="translate(161.083984 0)"/>
    </g>
   </g>
   <g id="line2d_120">
    <path d="M 382.642317 225.467717 
L 382.642317 38.381102 
" clip-path="url(#p6390bc01d8)" style="fill: none; stroke-dasharray: 9.25,4; stroke-dashoffset: 0; stroke: #808080; stroke-opacity: 0.6; stroke-width: 2.5"/>
   </g>
   <g id="legend_1">
    <g id="patch_13">
     <path d="M 34.661777 47.645625 
L 148.104433 47.645625 
Q 150.304433 47.645625 150.304433 45.445625 
L 150.304433 14.9 
Q 150.304433 12.7 148.104433 12.7 
L 34.661777 12.7 
Q 32.461777 12.7 32.461777 14.9 
L 32.461777 45.445625 
Q 32.461777 47.645625 34.661777 47.645625 
z
" style="fill: #ffffff; opacity: 0.8; stroke: #cccccc; stroke-linejoin: miter"/>
    </g>
    <g id="patch_14">
     <path d="M 36.861777 25.107656 
L 58.861777 25.107656 
L 58.861777 17.407656 
L 36.861777 17.407656 
z
" style="fill: #ffe4b5; opacity: 0.6"/>
    </g>
    <g id="text_7">
     <!-- Climb Regime 1 -->
     <g transform="translate(67.661777 25.107656) scale(0.11 -0.11)">
      <defs>
       <path id="ArialMT-43" d="M 3763 1606 
L 4369 1453 
Q 4178 706 3683 314 
Q 3188 -78 2472 -78 
Q 1731 -78 1267 223 
Q 803 525 561 1097 
Q 319 1669 319 2325 
Q 319 3041 592 3573 
Q 866 4106 1370 4382 
Q 1875 4659 2481 4659 
Q 3169 4659 3637 4309 
Q 4106 3959 4291 3325 
L 3694 3184 
Q 3534 3684 3231 3912 
Q 2928 4141 2469 4141 
Q 1941 4141 1586 3887 
Q 1231 3634 1087 3207 
Q 944 2781 944 2328 
Q 944 1744 1114 1308 
Q 1284 872 1643 656 
Q 2003 441 2422 441 
Q 2931 441 3284 734 
Q 3638 1028 3763 1606 
z
" transform="scale(0.015625)"/>
       <path id="ArialMT-62" d="M 941 0 
L 419 0 
L 419 4581 
L 981 4581 
L 981 2947 
Q 1338 3394 1891 3394 
Q 2197 3394 2470 3270 
Q 2744 3147 2920 2923 
Q 3097 2700 3197 2384 
Q 3297 2069 3297 1709 
Q 3297 856 2875 390 
Q 2453 -75 1863 -75 
Q 1275 -75 941 416 
L 941 0 
z
M 934 1684 
Q 934 1088 1097 822 
Q 1363 388 1816 388 
Q 2184 388 2453 708 
Q 2722 1028 2722 1663 
Q 2722 2313 2464 2622 
Q 2206 2931 1841 2931 
Q 1472 2931 1203 2611 
Q 934 2291 934 1684 
z
" transform="scale(0.015625)"/>
       <path id="ArialMT-52" d="M 503 0 
L 503 4581 
L 2534 4581 
Q 3147 4581 3465 4457 
Q 3784 4334 3975 4021 
Q 4166 3709 4166 3331 
Q 4166 2844 3850 2509 
Q 3534 2175 2875 2084 
Q 3116 1969 3241 1856 
Q 3506 1613 3744 1247 
L 4541 0 
L 3778 0 
L 3172 953 
Q 2906 1366 2734 1584 
Q 2563 1803 2427 1890 
Q 2291 1978 2150 2013 
Q 2047 2034 1813 2034 
L 1109 2034 
L 1109 0 
L 503 0 
z
M 1109 2559 
L 2413 2559 
Q 2828 2559 3062 2645 
Q 3297 2731 3419 2920 
Q 3541 3109 3541 3331 
Q 3541 3656 3305 3865 
Q 3069 4075 2559 4075 
L 1109 4075 
L 1109 2559 
z
" transform="scale(0.015625)"/>
       <path id="ArialMT-67" d="M 319 -275 
L 866 -356 
Q 900 -609 1056 -725 
Q 1266 -881 1628 -881 
Q 2019 -881 2231 -725 
Q 2444 -569 2519 -288 
Q 2563 -116 2559 434 
Q 2191 0 1641 0 
Q 956 0 581 494 
Q 206 988 206 1678 
Q 206 2153 378 2554 
Q 550 2956 876 3175 
Q 1203 3394 1644 3394 
Q 2231 3394 2613 2919 
L 2613 3319 
L 3131 3319 
L 3131 450 
Q 3131 -325 2973 -648 
Q 2816 -972 2473 -1159 
Q 2131 -1347 1631 -1347 
Q 1038 -1347 672 -1080 
Q 306 -813 319 -275 
z
M 784 1719 
Q 784 1066 1043 766 
Q 1303 466 1694 466 
Q 2081 466 2343 764 
Q 2606 1063 2606 1700 
Q 2606 2309 2336 2618 
Q 2066 2928 1684 2928 
Q 1309 2928 1046 2623 
Q 784 2319 784 1719 
z
" transform="scale(0.015625)"/>
       <path id="ArialMT-31" d="M 2384 0 
L 1822 0 
L 1822 3584 
Q 1619 3391 1289 3197 
Q 959 3003 697 2906 
L 697 3450 
Q 1169 3672 1522 3987 
Q 1875 4303 2022 4600 
L 2384 4600 
L 2384 0 
z
" transform="scale(0.015625)"/>
      </defs>
      <use xlink:href="#ArialMT-43"/>
      <use xlink:href="#ArialMT-6c" transform="translate(72.216797 0)"/>
      <use xlink:href="#ArialMT-69" transform="translate(94.433594 0)"/>
      <use xlink:href="#ArialMT-6d" transform="translate(116.650391 0)"/>
      <use xlink:href="#ArialMT-62" transform="translate(199.951172 0)"/>
      <use xlink:href="#ArialMT-20" transform="translate(255.566406 0)"/>
      <use xlink:href="#ArialMT-52" transform="translate(283.349609 0)"/>
      <use xlink:href="#ArialMT-65" transform="translate(355.566406 0)"/>
      <use xlink:href="#ArialMT-67" transform="translate(411.181641 0)"/>
      <use xlink:href="#ArialMT-69" transform="translate(466.796875 0)"/>
      <use xlink:href="#ArialMT-6d" transform="translate(489.013672 0)"/>
      <use xlink:href="#ArialMT-65" transform="translate(572.314453 0)"/>
      <use xlink:href="#ArialMT-20" transform="translate(627.929688 0)"/>
      <use xlink:href="#ArialMT-31" transform="translate(655.712891 0)"/>
     </g>
    </g>
    <g id="patch_15">
     <path d="M 36.861777 40.930469 
L 58.861777 40.930469 
L 58.861777 33.230469 
L 36.861777 33.230469 
z
" style="fill: #ffe4e1; opacity: 0.6"/>
    </g>
    <g id="text_8">
     <!-- Climb Regime 2 -->
     <g transform="translate(67.661777 40.930469) scale(0.11 -0.11)">
      <defs>
       <path id="ArialMT-32" d="M 3222 541 
L 3222 0 
L 194 0 
Q 188 203 259 391 
Q 375 700 629 1000 
Q 884 1300 1366 1694 
Q 2113 2306 2375 2664 
Q 2638 3022 2638 3341 
Q 2638 3675 2398 3904 
Q 2159 4134 1775 4134 
Q 1369 4134 1125 3890 
Q 881 3647 878 3216 
L 300 3275 
Q 359 3922 746 4261 
Q 1134 4600 1788 4600 
Q 2447 4600 2831 4234 
Q 3216 3869 3216 3328 
Q 3216 3053 3103 2787 
Q 2991 2522 2730 2228 
Q 2469 1934 1863 1422 
Q 1356 997 1212 845 
Q 1069 694 975 541 
L 3222 541 
z
" transform="scale(0.015625)"/>
      </defs>
      <use xlink:href="#ArialMT-43"/>
      <use xlink:href="#ArialMT-6c" transform="translate(72.216797 0)"/>
      <use xlink:href="#ArialMT-69" transform="translate(94.433594 0)"/>
      <use xlink:href="#ArialMT-6d" transform="translate(116.650391 0)"/>
      <use xlink:href="#ArialMT-62" transform="translate(199.951172 0)"/>
      <use xlink:href="#ArialMT-20" transform="translate(255.566406 0)"/>
      <use xlink:href="#ArialMT-52" transform="translate(283.349609 0)"/>
      <use xlink:href="#ArialMT-65" transform="translate(355.566406 0)"/>
      <use xlink:href="#ArialMT-67" transform="translate(411.181641 0)"/>
      <use xlink:href="#ArialMT-69" transform="translate(466.796875 0)"/>
      <use xlink:href="#ArialMT-6d" transform="translate(489.013672 0)"/>
      <use xlink:href="#ArialMT-65" transform="translate(572.314453 0)"/>
      <use xlink:href="#ArialMT-20" transform="translate(627.929688 0)"/>
      <use xlink:href="#ArialMT-32" transform="translate(655.712891 0)"/>
     </g>
    </g>
   </g>
   <g id="line2d_121">
    <path d="M 298.952778 38.381102 
L 382.642317 38.381102 
" clip-path="url(#p6390bc01d8)" style="fill: none; stroke-dasharray: 7.4,3.2; stroke-dashoffset: 0; stroke: #000000; stroke-width: 2"/>
   </g>
   <g id="LineCollection_1">
    <path d="M 47.884161 225.467717 
L 123.204746 225.467717 
" clip-path="url(#p6390bc01d8)" style="fill: none; stroke-dasharray: 3.7,1.6; stroke-dashoffset: 0; stroke: #000000; stroke-opacity: 0.3"/>
   </g>
   <g id="LineCollection_2">
    <path d="M 133.665939 152.711811 
L 208.986523 152.711811 
" clip-path="url(#p6390bc01d8)" style="fill: none; stroke-dasharray: 3.7,1.6; stroke-dashoffset: 0; stroke: #000000; stroke-opacity: 0.3"/>
   </g>
   <g id="text_9">
    <!-- ROC1 -->
    <g style="fill: #ffa500" transform="translate(82.071426 210.194039) scale(0.11 -0.11)">
     <defs>
      <path id="Arial-BoldMT-52" d="M 469 0 
L 469 4581 
L 2416 4581 
Q 3150 4581 3483 4457 
Q 3816 4334 4016 4018 
Q 4216 3703 4216 3297 
Q 4216 2781 3912 2445 
Q 3609 2109 3006 2022 
Q 3306 1847 3501 1637 
Q 3697 1428 4028 894 
L 4588 0 
L 3481 0 
L 2813 997 
Q 2456 1531 2325 1670 
Q 2194 1809 2047 1861 
Q 1900 1913 1581 1913 
L 1394 1913 
L 1394 0 
L 469 0 
z
M 1394 2644 
L 2078 2644 
Q 2744 2644 2909 2700 
Q 3075 2756 3169 2893 
Q 3263 3031 3263 3238 
Q 3263 3469 3139 3611 
Q 3016 3753 2791 3791 
Q 2678 3806 2116 3806 
L 1394 3806 
L 1394 2644 
z
" transform="scale(0.015625)"/>
      <path id="Arial-BoldMT-4f" d="M 278 2263 
Q 278 2963 488 3438 
Q 644 3788 914 4066 
Q 1184 4344 1506 4478 
Q 1934 4659 2494 4659 
Q 3506 4659 4114 4031 
Q 4722 3403 4722 2284 
Q 4722 1175 4119 548 
Q 3516 -78 2506 -78 
Q 1484 -78 881 545 
Q 278 1169 278 2263 
z
M 1231 2294 
Q 1231 1516 1590 1114 
Q 1950 713 2503 713 
Q 3056 713 3411 1111 
Q 3766 1509 3766 2306 
Q 3766 3094 3420 3481 
Q 3075 3869 2503 3869 
Q 1931 3869 1581 3476 
Q 1231 3084 1231 2294 
z
" transform="scale(0.015625)"/>
      <path id="Arial-BoldMT-43" d="M 3397 1684 
L 4294 1400 
Q 4088 650 3608 286 
Q 3128 -78 2391 -78 
Q 1478 -78 890 545 
Q 303 1169 303 2250 
Q 303 3394 893 4026 
Q 1484 4659 2447 4659 
Q 3288 4659 3813 4163 
Q 4125 3869 4281 3319 
L 3366 3100 
Q 3284 3456 3026 3662 
Q 2769 3869 2400 3869 
Q 1891 3869 1573 3503 
Q 1256 3138 1256 2319 
Q 1256 1450 1568 1081 
Q 1881 713 2381 713 
Q 2750 713 3015 947 
Q 3281 1181 3397 1684 
z
" transform="scale(0.015625)"/>
     </defs>
     <use xlink:href="#Arial-BoldMT-52"/>
     <use xlink:href="#Arial-BoldMT-4f" transform="translate(72.216797 0)"/>
     <use xlink:href="#Arial-BoldMT-43" transform="translate(150 0)"/>
     <use xlink:href="#Arial-BoldMT-31" transform="translate(222.216797 0)"/>
    </g>
   </g>
   <g id="text_10">
    <!-- ROC2 -->
    <g style="fill: #ff0000" transform="translate(169.879301 147.430048) scale(0.11 -0.11)">
     <use xlink:href="#Arial-BoldMT-52"/>
     <use xlink:href="#Arial-BoldMT-4f" transform="translate(72.216797 0)"/>
     <use xlink:href="#Arial-BoldMT-43" transform="translate(150 0)"/>
     <use xlink:href="#Arial-BoldMT-32" transform="translate(222.216797 0)"/>
    </g>
   </g>
   <g id="line2d_122">
    <path d="M 123.204746 225.467717 
L 123.202828 224.933588 
L 123.197072 224.399486 
L 123.18748 223.865438 
L 123.174051 223.331472 
L 123.156787 222.797616 
L 123.135688 222.263895 
L 123.110756 221.730337 
L 123.081991 221.19697 
L 123.049395 220.66382 
L 123.01297 220.130915 
L 122.972718 219.598282 
L 122.928641 219.065948 
L 122.88074 218.53394 
L 122.829019 218.002285 
L 122.77348 217.47101 
L 122.714125 216.940143 
L 122.650959 216.409711 
L 122.583984 215.87974 
L 122.513203 215.350257 
L 122.43862 214.821289 
L 122.360239 214.292865 
L 122.278064 213.765009 
L 122.192099 213.237749 
L 122.102349 212.711113 
L 122.008817 212.185126 
L 121.91151 211.659817 
L 121.810431 211.13521 
L 121.705586 210.611334 
L 121.59698 210.088214 
L 121.484619 209.565878 
L 121.368509 209.044353 
L 121.248655 208.523663 
L 121.125063 208.003837 
L 120.99774 207.484901 
L 120.866693 206.966881 
L 120.731928 206.449803 
L 120.593451 205.933694 
L 120.451271 205.418581 
L 120.305393 204.904488 
L 120.155826 204.391444 
L 120.002577 203.879473 
L 119.845655 203.368601 
L 119.685066 202.858856 
L 119.52082 202.350262 
L 119.352924 201.842846 
L 119.181387 201.336634 
L 119.006218 200.831651 
L 118.827425 200.327923 
L 118.645019 199.825475 
L 118.459008 199.324334 
L 118.269401 198.824525 
L 118.076209 198.326073 
L 117.879441 197.829004 
L 117.679107 197.333343 
L 117.475217 196.839115 
L 117.267782 196.346346 
L 117.056813 195.85506 
L 116.842319 195.365283 
L 116.624313 194.877039 
L 116.402804 194.390354 
L 116.177805 193.905252 
L 115.949327 193.421758 
L 115.717382 192.939896 
L 115.48198 192.459692 
L 115.243135 191.981169 
L 115.000859 191.504352 
L 114.755163 191.029265 
L 114.50606 190.555932 
L 114.253564 190.084379 
L 113.997687 189.614627 
L 113.738441 189.146703 
L 113.47584 188.680628 
L 113.209899 188.216428 
L 112.940629 187.754125 
L 112.668044 187.293744 
L 112.39216 186.835307 
L 112.112989 186.378839 
L 111.830546 185.924361 
L 111.544846 185.471899 
L 111.255902 185.021474 
L 110.96373 184.573109 
L 110.668344 184.126828 
L 110.36976 183.682652 
L 110.067993 183.240606 
L 109.763058 182.80071 
L 109.45497 182.362989 
L 109.143746 181.927463 
L 108.829401 181.494155 
L 108.511951 181.063088 
L 108.191413 180.634282 
L 107.867802 180.207761 
L 107.541135 179.783545 
L 107.21143 179.361657 
L 106.878702 178.942118 
L 106.542968 178.524948 
L 106.204246 178.110171 
L 105.862554 177.697805 
L 105.517907 177.287874 
L 105.170324 176.880396 
" clip-path="url(#p6390bc01d8)" style="fill: none; stroke: #ffa500; stroke-width: 2.5; stroke-linecap: square"/>
   </g>
   <g id="line2d_123">
    <path d="M 208.986523 152.711811 
L 208.985803 152.38455 
L 208.983643 152.057295 
L 208.980042 151.730053 
L 208.975 151.402829 
L 208.968519 151.075631 
L 208.960597 150.748463 
L 208.951235 150.421334 
L 208.940434 150.094248 
L 208.928193 149.767212 
L 208.914512 149.440233 
L 208.899393 149.113316 
L 208.882834 148.786468 
L 208.864838 148.459695 
L 208.845403 148.133003 
L 208.82453 147.806399 
L 208.80222 147.479888 
L 208.778474 147.153478 
L 208.75329 146.827174 
L 208.726671 146.500983 
L 208.698616 146.17491 
L 208.669126 145.848962 
L 208.638202 145.523146 
L 208.605844 145.197467 
L 208.572053 144.871932 
L 208.536829 144.546546 
L 208.500174 144.221317 
L 208.462087 143.89625 
L 208.42257 143.571352 
L 208.381623 143.246629 
L 208.339248 142.922087 
L 208.295444 142.597731 
L 208.250213 142.27357 
L 208.203556 141.949608 
L 208.155473 141.625851 
L 208.105966 141.302307 
L 208.055035 140.978981 
L 208.002681 140.655879 
L 207.948906 140.333008 
L 207.89371 140.010374 
L 207.837095 139.687982 
L 207.779061 139.36584 
L 207.71961 139.043953 
L 207.658742 138.722327 
L 207.59646 138.400969 
L 207.532763 138.079884 
L 207.467654 137.75908 
L 207.401134 137.438561 
L 207.333203 137.118334 
L 207.263864 136.798406 
L 207.193117 136.478782 
L 207.120964 136.159468 
L 207.047406 135.840471 
L 206.972445 135.521796 
L 206.896081 135.203451 
L 206.818318 134.88544 
L 206.739155 134.56777 
L 206.658595 134.250447 
L 206.576639 133.933477 
L 206.493289 133.616866 
L 206.408546 133.30062 
L 206.322411 132.984746 
L 206.234887 132.669249 
L 206.145976 132.354135 
L 206.055678 132.03941 
L 205.963996 131.725081 
L 205.870931 131.411153 
L 205.776485 131.097633 
L 205.68066 130.784526 
L 205.583458 130.471838 
L 205.484881 130.159576 
L 205.38493 129.847745 
L 205.283608 129.536351 
L 205.180916 129.2254 
L 205.076856 128.914899 
L 204.971431 128.604852 
L 204.864642 128.295267 
L 204.756491 127.986148 
L 204.646981 127.677503 
L 204.536113 127.369336 
L 204.42389 127.061654 
L 204.310313 126.754462 
L 204.195386 126.447767 
L 204.07911 126.141574 
L 203.961487 125.835889 
L 203.84252 125.530719 
L 203.722211 125.226068 
L 203.600562 124.921942 
L 203.477576 124.618348 
L 203.353254 124.315292 
L 203.2276 124.012778 
L 203.100616 123.710814 
L 202.972303 123.409404 
L 202.842665 123.108554 
L 202.711705 122.80827 
L 202.579423 122.508559 
L 202.445824 122.209425 
L 202.31091 121.910874 
L 202.174682 121.612912 
L 202.037145 121.315546 
" clip-path="url(#p6390bc01d8)" style="fill: none; stroke: #ff0000; stroke-width: 2.5; stroke-linecap: square"/>
   </g>
  </g>
 </g>
 <defs>
  <clipPath id="p6390bc01d8">
   <rect x="26.961777" y="7.2" width="439.370079" height="218.267717"/>
  </clipPath>
 </defs>
</svg>
